<svg width="32" height="32" viewBox="0 0 32 32" fill="none" xmlns="http://www.w3.org/2000/svg">
  <rect width="32" height="32" rx="6" fill="#FF6B35"/>
  <path d="M8 12C8 10.8954 8.89543 10 10 10H12C13.1046 10 14 10.8954 14 12V20C14 21.1046 13.1046 22 12 22H10C8.89543 22 8 21.1046 8 20V12Z" fill="white"/>
  <path d="M18 8C18 6.89543 18.8954 6 20 6H22C23.1046 6 24 6.89543 24 8V24C24 25.1046 23.1046 26 22 26H20C18.8954 26 18 25.1046 18 24V8Z" fill="white"/>
  <circle cx="16" cy="16" r="2" fill="white"/>
  <path d="M14 15H18V17H14V15Z" fill="#FF6B35"/>
</svg>