<svg width="32" height="32" viewBox="0 0 32 32" fill="none" xmlns="http://www.w3.org/2000/svg">
  <!-- Fitness900 Favicon - Stylized "F9" -->
  <rect width="32" height="32" rx="6" fill="#007bff"/>
  
  <!-- Letter F -->
  <path d="M8 8V24H11V18H16V15H11V11H17V8H8Z" fill="white"/>
  
  <!-- Number 9 -->
  <path d="M19 8C17.3431 8 16 9.34315 16 11V13C16 14.6569 17.3431 16 19 16H21V21C21 21.5523 20.5523 22 20 22H19C18.4477 22 18 22.4477 18 23C18 23.5523 18.4477 24 19 24H20C22.2091 24 24 22.2091 24 20V11C24 9.34315 22.6569 8 21 8H19ZM19 13V11H21V13H19Z" fill="white"/>
</svg>